<svg width="76" height="17" viewBox="0 0 76 17" fill="none" xmlns="http://www.w3.org/2000/svg">
<path d="M5.2584 13.2016C4.3176 13.2016 3.416 13.0784 2.5536 12.832C1.6912 12.5744 0.9968 12.244 0.4704 11.8408L1.3944 9.7912C1.8984 10.1496 2.492 10.4464 3.1752 10.6816C3.8696 10.9056 4.5696 11.0176 5.2752 11.0176C5.8128 11.0176 6.244 10.9672 6.5688 10.8664C6.9048 10.7544 7.1512 10.6032 7.308 10.4128C7.4648 10.2224 7.5432 10.004 7.5432 9.7576C7.5432 9.444 7.42 9.1976 7.1736 9.0184C6.9272 8.828 6.6024 8.6768 6.1992 8.5648C5.796 8.4416 5.348 8.3296 4.8552 8.2288C4.3736 8.1168 3.8864 7.9824 3.3936 7.8256C2.912 7.6688 2.4696 7.4672 2.0664 7.2208C1.6632 6.9744 1.3328 6.6496 1.0752 6.2464C0.8288 5.8432 0.7056 5.328 0.7056 4.7008C0.7056 4.0288 0.8848 3.4184 1.2432 2.8696C1.6128 2.3096 2.1616 1.8672 2.8896 1.5424C3.6288 1.2064 4.5528 1.0384 5.6616 1.0384C6.4008 1.0384 7.1288 1.128 7.8456 1.3072C8.5624 1.4752 9.1952 1.7328 9.744 2.08L8.904 4.1464C8.3552 3.8328 7.8064 3.6032 7.2576 3.4576C6.7088 3.3008 6.1712 3.2224 5.6448 3.2224C5.1184 3.2224 4.6872 3.284 4.3512 3.4072C4.0152 3.5304 3.7744 3.6928 3.6288 3.8944C3.4832 4.0848 3.4104 4.3088 3.4104 4.5664C3.4104 4.8688 3.5336 5.1152 3.78 5.3056C4.0264 5.4848 4.3512 5.6304 4.7544 5.7424C5.1576 5.8544 5.6 5.9664 6.0816 6.0784C6.5744 6.1904 7.0616 6.3192 7.5432 6.4648C8.036 6.6104 8.484 6.8064 8.8872 7.0528C9.2904 7.2992 9.6152 7.624 9.8616 8.0272C10.1192 8.4304 10.248 8.94 10.248 9.556C10.248 10.2168 10.0632 10.8216 9.6936 11.3704C9.324 11.9192 8.7696 12.3616 8.0304 12.6976C7.3024 13.0336 6.3784 13.2016 5.2584 13.2016ZM17.9373 13.1344C17.1757 13.1344 16.5093 12.9664 15.9381 12.6304C15.3669 12.2944 14.9189 11.7848 14.5941 11.1016C14.2805 10.4072 14.1237 9.5336 14.1237 8.4808C14.1237 7.4168 14.2749 6.5432 14.5773 5.86C14.8797 5.1768 15.3165 4.6672 15.8877 4.3312C16.4589 3.9952 17.1421 3.8272 17.9373 3.8272C18.7885 3.8272 19.5501 4.0232 20.2221 4.4152C20.9053 4.796 21.4429 5.3336 21.8349 6.028C22.2381 6.7224 22.4397 7.54 22.4397 8.4808C22.4397 9.4328 22.2381 10.256 21.8349 10.9504C21.4429 11.6448 20.9053 12.1824 20.2221 12.5632C19.5501 12.944 18.7885 13.1344 17.9373 13.1344ZM12.5949 16.2592V3.9616H15.0981V5.8096L15.0477 8.4976L15.2157 11.1688V16.2592H12.5949ZM17.4837 10.984C17.9205 10.984 18.3069 10.8832 18.6429 10.6816C18.9901 10.48 19.2645 10.1944 19.4661 9.8248C19.6789 9.444 19.7853 8.996 19.7853 8.4808C19.7853 7.9544 19.6789 7.5064 19.4661 7.1368C19.2645 6.7672 18.9901 6.4816 18.6429 6.28C18.3069 6.0784 17.9205 5.9776 17.4837 5.9776C17.0469 5.9776 16.6549 6.0784 16.3077 6.28C15.9605 6.4816 15.6861 6.7672 15.4845 7.1368C15.2829 7.5064 15.1821 7.9544 15.1821 8.4808C15.1821 8.996 15.2829 9.444 15.4845 9.8248C15.6861 10.1944 15.9605 10.48 16.3077 10.6816C16.6549 10.8832 17.0469 10.984 17.4837 10.984ZM29.3517 13.1344C28.3213 13.1344 27.4141 12.9328 26.6301 12.5296C25.8573 12.1264 25.2581 11.5776 24.8325 10.8832C24.4069 10.1776 24.1941 9.3768 24.1941 8.4808C24.1941 7.5736 24.4013 6.7728 24.8157 6.0784C25.2413 5.3728 25.8181 4.824 26.5461 4.432C27.2741 4.0288 28.0973 3.8272 29.0157 3.8272C29.9005 3.8272 30.6957 4.0176 31.4013 4.3984C32.1181 4.768 32.6837 5.3056 33.0981 6.0112C33.5125 6.7056 33.7197 7.54 33.7197 8.5144C33.7197 8.6152 33.7141 8.7328 33.7029 8.8672C33.6917 8.9904 33.6805 9.108 33.6693 9.22H26.3277V7.6912H32.2917L31.2837 8.1448C31.2837 7.6744 31.1885 7.2656 30.9981 6.9184C30.8077 6.5712 30.5445 6.3024 30.2085 6.112C29.8725 5.9104 29.4805 5.8096 29.0325 5.8096C28.5845 5.8096 28.1869 5.9104 27.8397 6.112C27.5037 6.3024 27.2405 6.5768 27.0501 6.9352C26.8597 7.2824 26.7645 7.6968 26.7645 8.1784V8.5816C26.7645 9.0744 26.8709 9.5112 27.0837 9.892C27.3077 10.2616 27.6157 10.5472 28.0077 10.7488C28.4109 10.9392 28.8813 11.0344 29.4189 11.0344C29.9005 11.0344 30.3205 10.9616 30.6789 10.816C31.0485 10.6704 31.3845 10.452 31.6869 10.1608L33.0813 11.6728C32.6669 12.1432 32.1461 12.5072 31.5189 12.7648C30.8917 13.0112 30.1693 13.1344 29.3517 13.1344ZM41.6301 3.8272C42.3469 3.8272 42.9853 3.9728 43.5453 4.264C44.1165 4.544 44.5645 4.9808 44.8893 5.5744C45.2141 6.1568 45.3765 6.9072 45.3765 7.8256V13H42.7557V8.2288C42.7557 7.5008 42.5933 6.9632 42.2685 6.616C41.9549 6.2688 41.5069 6.0952 40.9245 6.0952C40.5101 6.0952 40.1349 6.1848 39.7989 6.364C39.4741 6.532 39.2165 6.7952 39.0261 7.1536C38.8469 7.512 38.7573 7.9712 38.7573 8.5312V13H36.1365V3.9616H38.6397V6.4648L38.1693 5.7088C38.4941 5.104 38.9589 4.6392 39.5637 4.3144C40.1685 3.9896 40.8573 3.8272 41.6301 3.8272ZM52.3706 13.1344C51.5194 13.1344 50.7522 12.944 50.069 12.5632C49.3858 12.1712 48.8426 11.628 48.4394 10.9336C48.0474 10.2392 47.8514 9.4216 47.8514 8.4808C47.8514 7.5288 48.0474 6.7056 48.4394 6.0112C48.8426 5.3168 49.3858 4.7792 50.069 4.3984C50.7522 4.0176 51.5194 3.8272 52.3706 3.8272C53.1322 3.8272 53.7986 3.9952 54.3698 4.3312C54.941 4.6672 55.3834 5.1768 55.697 5.86C56.0106 6.5432 56.1674 7.4168 56.1674 8.4808C56.1674 9.5336 56.0162 10.4072 55.7138 11.1016C55.4114 11.7848 54.9746 12.2944 54.4034 12.6304C53.8434 12.9664 53.1658 13.1344 52.3706 13.1344ZM52.8242 10.984C53.2498 10.984 53.6362 10.8832 53.9834 10.6816C54.3306 10.48 54.605 10.1944 54.8066 9.8248C55.0194 9.444 55.1258 8.996 55.1258 8.4808C55.1258 7.9544 55.0194 7.5064 54.8066 7.1368C54.605 6.7672 54.3306 6.4816 53.9834 6.28C53.6362 6.0784 53.2498 5.9776 52.8242 5.9776C52.3874 5.9776 51.9954 6.0784 51.6482 6.28C51.301 6.4816 51.021 6.7672 50.8082 7.1368C50.6066 7.5064 50.5058 7.9544 50.5058 8.4808C50.5058 8.996 50.6066 9.444 50.8082 9.8248C51.021 10.1944 51.301 10.48 51.6482 10.6816C51.9954 10.8832 52.3874 10.984 52.8242 10.984ZM55.193 13V11.152L55.2434 8.464L55.0754 5.7928V0.5344H57.6962V13H55.193ZM60.7938 13V0.5344H63.4146V13H60.7938ZM67.6613 16.3936C67.1909 16.3936 66.7261 16.3208 66.2669 16.1752C65.8077 16.0296 65.4325 15.828 65.1413 15.5704L66.0989 13.7056C66.3005 13.8848 66.5301 14.0248 66.7877 14.1256C67.0565 14.2264 67.3197 14.2768 67.5773 14.2768C67.9469 14.2768 68.2381 14.1872 68.4509 14.008C68.6749 13.84 68.8765 13.5544 69.0557 13.1512L69.5261 12.0424L69.7277 11.7568L72.9701 3.9616H75.4901L71.4077 13.5544C71.1165 14.2824 70.7805 14.8536 70.3997 15.268C70.0301 15.6824 69.6157 15.9736 69.1565 16.1416C68.7085 16.3096 68.2101 16.3936 67.6613 16.3936ZM69.2069 13.3528L65.1749 3.9616H67.8797L71.0045 11.5216L69.2069 13.3528Z" fill="#3559E0"/>
</svg>
